# xmcd
#
# Track frame offsets:
#	150
#	14396
#	27265
#	38730
#	51599
#	69220
#	81090
#	94742
#	109987
#	121070
#	131752
#	151155
#	165806
#	178270
#	192125
#	204400
#	216864
#	229139
#	243979
#	253662
#	268907
#	284746
#
# Disc length: 4005 seconds
#
# Revision: 2
# Processed by: cddbd v1.4PL0 Copyright (c) Steve Scherf et al.
# Submitted via: audiograbber 1.80
#
DISCID=370fa316
DTITLE=Various Country Artists - C C - Mid 70's
DYEAR=1900
DGENRE=
TTITLE0=George Jone - The Grand Tour
TTITLE1=Gary Stewart - She's Acting Single
TTITLE2=Conway Twitty and Loretta Lynn - Louisiana Woman Mississipi Man
TTITLE3=Don Williams - You're My Best Friend
TTITLE4=Emmylou Harris - Together Again
TTITLE5=Freddy Frender - Before The Next Teardrop Falls
TTITLE6=Mickey Gilley - Don't The Girls All Get Prettier At Closing Time
TTITLE7=B.J. Thomas - Another Somebody Done Somebody Wrong Song
TTITLE8=Tanya Tucker - Would You Lay With Me
TTITLE9=Willie Nelson - Blue Eyes Crying In The Rain
TTITLE10=Marty Robbins - El Paso City
TTITLE11=Glen Campbell - Rhinestone Cowboy
TTITLE12=Charlie Rich - The Most Beautiful Girl
TTITLE13=Conway Twitty - You've Never Been This Far Before
TTITLE14=Dolly Parton - Jolene
TTITLE15=Merle Haggard - If We Make It Through December
TTITLE16=Waylon Jennings - Are You Sure Hank Done It This Way
TTITLE17=Jeanne Pruett - Satin Sheets
TTITLE18=Tom T. Hall - I Love
TTITLE19=Jessi Colter - I'm Not Lisa
TTITLE20=Don Williams - Till The River Runs Dry
TTITLE21=Narvel Felts - Reconsider Me
EXTD=
EXTT0=
EXTT1=
EXTT2=
EXTT3=
EXTT4=
EXTT5=
EXTT6=
EXTT7=
EXTT8=
EXTT9=
EXTT10=
EXTT11=
EXTT12=
EXTT13=
EXTT14=
EXTT15=
EXTT16=
EXTT17=
EXTT18=
EXTT19=
EXTT20=
EXTT21=
PLAYORDER=
